<?xml version="1.0" standalone="no"?>
<!DOCTYPE svg PUBLIC "-//W3C//DTD SVG 20010904//EN"
 "http://www.w3.org/TR/2001/REC-SVG-20010904/DTD/svg10.dtd">
<svg version="1.0" xmlns="http://www.w3.org/2000/svg"
 width="260.000000pt" height="260.000000pt" viewBox="0 0 260.000000 260.000000"
 preserveAspectRatio="xMidYMid meet">
<metadata>
Created by potrace 1.11, written by Peter Selinger 2001-2013
</metadata>
<g transform="translate(0.000000,260.000000) scale(0.100000,-0.100000)"
fill="#000000" stroke="none">
<path d="M745 1666 c-71 -23 -122 -54 -159 -97 -46 -55 -59 -96 -54 -179 7
-131 77 -190 280 -236 142 -33 178 -52 178 -93 0 -60 -76 -92 -165 -70 -50 13
-83 46 -92 92 l-6 28 -111 -3 -111 -3 3 -45 c4 -56 40 -136 78 -174 130 -128
464 -128 586 1 40 42 58 94 58 168 0 149 -80 226 -285 273 -118 27 -141 36
-160 66 -33 49 14 96 95 96 54 0 95 -23 108 -60 l11 -30 110 0 111 0 0 33 c0
80 -76 178 -169 221 -58 25 -243 33 -306 12z"/>
<path d="M1330 1235 l0 -435 115 0 115 0 0 110 0 111 37 49 c21 28 40 50 43
50 3 0 48 -72 100 -160 l95 -159 143 -1 142 0 -48 78 c-27 42 -95 150 -151
240 -56 90 -99 168 -95 173 6 10 255 340 276 367 8 9 -19 12 -129 12 l-139 0
-129 -175 c-71 -96 -132 -175 -137 -175 -4 0 -8 79 -8 175 l0 175 -115 0 -115
0 0 -435z"/>
</g>
</svg>
